<?xml version="1.0" standalone="no"?><!DOCTYPE svg PUBLIC "-//W3C//DTD SVG 1.1//EN" "http://www.w3.org/Graphics/SVG/1.1/DTD/svg11.dtd"><svg t="1631881418458" class="icon" viewBox="0 0 1024 1024" version="1.1" xmlns="http://www.w3.org/2000/svg" p-id="12110" xmlns:xlink="http://www.w3.org/1999/xlink" width="200" height="200"><defs><style type="text/css"></style></defs><path d="M520.6 648.8l-5.4-5.1c-33.3-31.9-59.4-69.5-77.4-111.7-18.7-43.7-27.8-90.2-27-138.1s11.3-94.1 31.3-137.2c19.4-41.6 46.6-78.4 80.9-109.2l5.5-5 5.4 5.1c33.3 31.9 59.4 69.5 77.4 111.7 18.7 43.7 27.8 90.2 27 138.1-0.7 47.9-11.3 94.1-31.3 137.2-19.4 41.6-46.6 78.4-80.9 109.2l-5.5 5zM418.7 394l8 0.1c-1.4 86.8 32.9 171.2 94.1 232.7 63.2-59.6 100-142.8 101.4-229.7 1.4-86.8-32.9-171.2-94.2-232.7-63.2 59.6-100 142.8-101.4 229.7l-7.9-0.1z" fill="#231815" p-id="12111"></path><path d="M511.5 655.7l-7.4-0.9c-41.7-5.1-81.1-18.2-117.3-39.1-37.5-21.7-69.4-50.5-95-85.8-25.6-35.3-43.1-74.7-52-117-8.6-40.9-8.8-82.5-0.7-123.7l1.4-7.3 7.4 0.9c41.7 5.1 81.1 18.2 117.3 39.1 37.5 21.7 69.4 50.5 95 85.8s43.1 74.7 52 117c8.6 40.9 8.8 82.5 0.7 123.7l-1.4 7.3zM304.7 520.4c46 63.5 116.3 106 193.9 117.5 13.2-77.2-5.3-157.3-51.3-220.8S331 311.1 253.4 299.6c-13.2 77.3 5.3 157.3 51.3 220.8z" fill="#231815" p-id="12112"></path><path d="M510.2 651.5l-1.4-7.3c-8.2-41.2-7.9-82.8 0.7-123.7 8.9-42.3 26.4-81.7 52-117s57.6-64.2 95-85.8c36.2-20.9 75.6-34.1 117.3-39.1l7.4-0.9 1.4 7.3c8.2 41.2 7.9 82.8-0.7 123.7-8.9 42.3-26.4 81.7-52 117s-57.6 64.2-95 85.8c-36.2 20.9-75.6 34.1-117.3 39.1l-7.4 0.9z m258-356.1c-77.5 11.5-147.8 54-193.9 117.5-46 63.5-64.5 143.6-51.3 220.8 77.5-11.5 147.8-54 193.9-117.5 46-63.5 64.6-143.5 51.3-220.8z" fill="#231815" p-id="12113"></path><path d="M333.4 710.7c-28.2 0-56.4-3.6-84.2-10.7-46.4-11.9-88.8-32.9-126.1-62.5-36-28.5-65.3-63.6-87.3-104.1l-3.5-6.5 6.2-4c38.8-24.9 81.4-41.5 126.7-49.2 46.9-8 94.2-6 140.6 5.9 46.4 11.9 88.8 32.9 126.1 62.5 36 28.5 65.3 63.6 87.3 104.1l3.5 6.5-6.2 4c-38.8 24.9-81.4 41.5-126.7 49.2-18.8 3.2-37.6 4.8-56.4 4.8z m-80.3-26.2c84.1 21.6 174.2 8 248.3-37.2-43.2-75.3-115.5-130.6-199.7-152.2-84.1-21.6-174.2-8-248.3 37.2C96.6 607.6 169 662.9 253.1 684.5z" fill="#231815" p-id="12114"></path><path d="M690.8 710.7c-18.8 0-37.6-1.6-56.4-4.8-45.3-7.7-87.9-24.2-126.7-49.2l-6.2-4 3.5-6.5c22-40.5 51.4-75.6 87.3-104.1 37.2-29.6 79.7-50.6 126.1-62.5 46.4-11.9 93.7-13.9 140.6-5.9 45.3 7.7 87.9 24.2 126.7 49.2l6.2 4-3.5 6.5c-22 40.5-51.4 75.6-87.3 104.1C863.9 667 821.5 688.1 775 700c-27.8 7.1-56 10.7-84.2 10.7z m-168-63.4c74.1 45.2 164.2 58.8 248.3 37.2 84.1-21.6 156.5-76.9 199.7-152.2-74.1-45.2-164.2-58.8-248.3-37.2-84.2 21.6-156.5 76.8-199.7 152.2z" fill="#231815" p-id="12115"></path></svg>